<?xml version="1.0" encoding="UTF-8" standalone="no"?>
<!-- Created with Inkscape (http://www.inkscape.org/) -->

<svg
   width="210mm"
   height="297mm"
   viewBox="0 0 210 297"
   version="1.1"
   id="svg5"
   xml:space="preserve"
   inkscape:version="1.2.2 (1:1.2.2+202212051550+b0a8486541)"
   sodipodi:docname="menu.svg"
   xmlns:inkscape="http://www.inkscape.org/namespaces/inkscape"
   xmlns:sodipodi="http://sodipodi.sourceforge.net/DTD/sodipodi-0.dtd"
   xmlns="http://www.w3.org/2000/svg"
   xmlns:svg="http://www.w3.org/2000/svg"><sodipodi:namedview
     id="namedview7"
     pagecolor="#ffffff"
     bordercolor="#666666"
     borderopacity="1.0"
     inkscape:showpageshadow="2"
     inkscape:pageopacity="0.0"
     inkscape:pagecheckerboard="0"
     inkscape:deskcolor="#d1d1d1"
     inkscape:document-units="mm"
     showgrid="false"
     inkscape:zoom="0.75722503"
     inkscape:cx="373.73302"
     inkscape:cy="561.92015"
     inkscape:window-width="1848"
     inkscape:window-height="1016"
     inkscape:window-x="72"
     inkscape:window-y="27"
     inkscape:window-maximized="1"
     inkscape:current-layer="layer1" /><defs
     id="defs2" /><g
     inkscape:label="Layer 1"
     inkscape:groupmode="layer"
     id="layer1"><circle
       style="fill:#ffffff;fill-opacity:1;stroke-width:2.298;stroke-linecap:round;stroke:#ffffff"
       id="path975"
       cx="96.057846"
       cy="93.859604"
       r="62.069149" /><path
       style="fill:#000000;stroke-width:0.264583"
       d="M 90.235536,161.2622 C 73.484318,159.64655 59.025975,152.83482 47.583649,141.1677 37.027828,130.4045 30.669588,117.37868 28.547646,102.16954 c -0.460935,-3.303769 -0.460935,-13.629559 0,-16.933329 1.675817,-12.01151 6.175063,-22.98143 13.310903,-32.45424 2.407999,-3.19662 7.47468,-8.47568 10.798751,-11.25142 9.399525,-7.84898 21.006705,-13.01241 33.609486,-14.9511 3.830865,-0.5893 14.499334,-0.6595 18.123954,-0.11925 12.50754,1.86425 23.60988,6.54746 33.11235,13.96753 11.66528,9.10891 20.32694,22.46999 23.90254,36.87098 1.59082,6.40713 1.72261,7.66211 1.72261,16.40416 0,8.742059 -0.13179,9.997039 -1.72261,16.404169 -4.08727,16.46174 -14.15824,30.60578 -28.72239,40.33876 -3.91107,2.61371 -10.91938,5.99331 -15.65515,7.54936 -4.49556,1.47713 -10.36498,2.7361 -14.73382,3.16037 -2.648551,0.25721 -9.838542,0.32081 -12.058734,0.10667 z m 12.435414,-8.58718 c 19.40263,-2.12773 36.96449,-14.41484 45.97959,-32.16952 8.35352,-16.45174 8.57695,-35.642499 0.60941,-52.344109 -8.62864,-18.08741 -26.05021,-30.76895 -45.75337,-33.30489 -4.16777,-0.53642 -11.252419,-0.54262 -15.28976,-0.0134 -17.743431,2.32596 -33.257469,12.2884 -42.834799,27.50662 -4.382494,6.96372 -7.534003,15.94936 -8.581245,24.46702 -0.460334,3.74409 -0.341458,11.31707 0.239649,15.266789 2.501125,16.9999 11.672622,31.51776 25.943029,41.06608 11.663224,7.80386 25.375265,11.09488 39.687496,9.52538 z M 63.840931,116.19389 c -2.6988,-1.64548 -2.527802,-5.90213 0.29083,-7.23966 1.235348,-0.58621 10.026041,-0.63705 11.393021,-0.0659 1.435182,0.59966 2.378208,2.0728 2.394162,3.74003 0.01516,1.58425 -0.498978,2.49799 -1.968217,3.49794 -0.833776,0.56746 -1.117319,0.59527 -6.061088,0.59432 -4.708477,-7.9e-4 -5.265853,-0.0494 -6.048708,-0.52674 z m 20.546752,-0.0728 c -2.500706,-1.67058 -2.41437,-5.44575 0.159036,-6.95387 l 1.121489,-0.65723 20.473762,0.0709 20.47377,0.071 0.86389,0.61617 c 2.35799,1.68185 2.26049,5.20622 -0.18972,6.85741 l -0.88472,0.59621 H 105.84595 85.286708 Z M 65.172894,97.692041 c -3.706945,-0.93601 -4.486407,-5.68622 -1.24478,-7.58594 1.128543,-0.66137 1.193432,-0.66746 6.249424,-0.58629 4.904083,0.0787 5.144772,0.10751 5.999768,0.71731 0.943488,0.67291 1.871898,2.3744 1.881587,3.44837 0.0096,1.05958 -0.979464,2.75133 -2.020999,3.45697 -0.93789,0.63542 -1.154186,0.6635 -5.49403,0.71324 -2.484737,0.0285 -4.901673,-0.0452 -5.37097,-0.16366 z m 20.637499,-0.0127 c -3.79363,-0.90132 -4.457531,-6.00627 -0.998863,-7.68058 1.063672,-0.51491 1.633619,-0.52919 21.12849,-0.52919 19.40776,0 20.06733,0.0163 21.05647,0.52094 3.44805,1.75907 2.66543,6.79706 -1.19498,7.6924 -1.24984,0.28987 -38.770134,0.28653 -39.991117,-0.004 z M 64.884397,78.634861 c -1.869741,-0.4648 -3.077826,-2.28428 -2.904492,-4.37444 0.136684,-1.64823 0.768093,-2.59264 2.211562,-3.30787 0.958826,-0.47508 1.591365,-0.53253 5.820833,-0.52865 4.41698,0.004 4.818298,0.0453 5.803445,0.5964 1.133826,0.63428 2.248958,2.42185 2.248958,3.6051 0,1.11963 -1.033367,2.87907 -2.069293,3.52322 -0.907764,0.56447 -1.285698,0.60863 -5.603623,0.6548 -2.546615,0.0272 -5.02494,-0.0486 -5.50739,-0.16856 z m 20.504978,-0.13198 c -3.383069,-1.20656 -3.862417,-5.19424 -0.889238,-7.39755 0.740515,-0.54877 0.919858,-0.5541 21.006933,-0.62451 20.0809,-0.0704 20.27014,-0.0661 21.40198,0.4818 1.9303,0.93444 2.80201,3.23166 2.00272,5.27775 -0.37124,0.9503 -1.66044,2.08515 -2.71108,2.38647 -0.55572,0.15938 -8.40216,0.25489 -20.353,0.24775 -15.71127,-0.009 -19.642642,-0.0808 -20.458315,-0.37171 z"
       id="path858" /><path
       style="fill:#000000;stroke-width:0.264583"
       id="path856"
       d="" /></g></svg>
